<?xml version="1.0" encoding="UTF-8" standalone="no"?>
<svg
   xmlns:dc="http://purl.org/dc/elements/1.1/"
   xmlns:cc="http://creativecommons.org/ns#"
   xmlns:rdf="http://www.w3.org/1999/02/22-rdf-syntax-ns#"
   xmlns:svg="http://www.w3.org/2000/svg"
   xmlns="http://www.w3.org/2000/svg"
   width="780.72815"
   height="136.81026"
   viewBox="0 0 206.56766 36.197712"
   version="1.1"
   id="svg8">
  <defs
     id="defs2">
    <rect
       x="291.07425"
       y="80.81089"
       width="81.36541"
       height="25.375225"
       id="rect905" />
    <rect
       x="293.78732"
       y="70.152382"
       width="76.547485"
       height="11.046093"
       id="rect897" />
    <rect
       x="246.50229"
       y="55.81184"
       width="186.81462"
       height="72.477875"
       id="rect883" />
    <rect
       x="245.97066"
       y="54.949432"
       width="172.52203"
       height="13.429039"
       id="rect877" />
  </defs>
  <metadata
     id="metadata5">
    <rdf:RDF>
      <cc:Work
         rdf:about="">
        <dc:format>image/svg+xml</dc:format>
        <dc:type
           rdf:resource="http://purl.org/dc/dcmitype/StillImage" />
        <dc:title></dc:title>
      </cc:Work>
    </rdf:RDF>
  </metadata>
  <g
     id="layer1"
     transform="translate(-2.6060934,-44.044051)">
    <text
       xml:space="preserve"
       id="text875"
       style="font-size:4.23333px;line-height:1.25;font-family:sans-serif;text-align:center;white-space:pre;shape-inside:url(#rect877)" />
    <text
       xml:space="preserve"
       id="text895"
       style="font-style:normal;font-variant:normal;font-weight:normal;font-stretch:normal;font-size:4.23333px;line-height:1.25;font-family:Purista;-inkscape-font-specification:'Purista, Normal';font-variant-ligatures:normal;font-variant-caps:normal;font-variant-numeric:normal;font-variant-east-asian:normal;text-align:center;white-space:pre;shape-inside:url(#rect897)" />
    <g
       id="g1044">
      <g
         id="g1969"
         transform="matrix(0.18494672,0,0,0.18494672,-4.43279,35.884918)">
        <path
           style="fill:#f9cc17;stroke-width:0.259581"
           d="M 104.54263,237.99537 C 93.928459,235.2743 81.191925,219.05132 67.27147,190.52175 40.127731,134.89144 31.51112,80.502549 46.888149,61.860262 62.67866,42.716687 136.88859,40.054634 163.43537,57.679488 c 7.9769,5.295994 11.40273,14.127714 11.76876,30.339605 1.22705,54.347007 -46.7205,156.113807 -70.6615,149.976277 z"
           id="path1981" />
        <path
           style="fill:#000000;stroke-width:0.264583"
           d="M 102.63496,239.23109 C 90.727896,234.99011 73.997022,210.1993 58.791191,174.26602 36.766118,122.21803 31.723766,75.645033 46.392401,59.74626 64.712703,39.889583 142.76028,38.633267 166.68513,57.809931 c 18.47299,14.806787 9.86286,75.093949 -19.08709,133.645659 -17.16086,34.70811 -33.35134,51.9113 -44.96308,47.7755 z m 7.41364,-4.2885 c 7.30621,-2.95808 17.39908,-15.13227 27.37001,-33.01416 2.3983,-4.30113 5.30382,-9.8586 5.30382,-10.14479 0,-0.15414 -95.21544,-94.180114 -98.796621,-97.562423 l -1.82091,-1.719792 0.161293,3.836458 c 1.641583,39.045777 31.227127,111.859357 54.451413,134.011457 5.389505,5.14069 8.949355,6.36725 13.330995,4.59325 z m 48.75409,-80.7271 C 172.69148,114.99554 176.12306,82.702989 168.18533,65.921169 161.36275,51.497002 116.10618,43.854536 78.164093,50.719306 69.652426,52.259302 56.747941,56.287958 57.082641,57.300732 57.189149,57.623013 157.3477,157.17081 157.57771,157.183 c 0.094,0.005 0.64524,-1.3304 1.22498,-2.96751 z m -18.27743,-38.24435 c -0.25216,-9.43958 -1.33843,-12.79106 -6.7867,-20.939065 -1.4172,-2.119461 -2.77681,-4.240882 -3.02135,-4.714267 l -0.44462,-0.860697 -1.31912,0.668448 c -2.08837,1.058254 -5.92533,2.249528 -7.81336,2.425835 -1.68623,0.157462 -1.77426,0.203759 -3.37625,1.775645 -0.91395,0.896782 -2.43688,2.025468 -3.42721,2.540011 -1.47547,0.766598 -2.09006,1.313259 -3.56955,3.175 -2.24386,2.8236 -3.47467,3.2247 -4.20331,1.36978 -0.46588,-1.18603 -1.32196,-1.48082 -3.45233,-1.18882 -1.11113,0.1523 -1.22827,0.10262 -2.36381,-1.00255 -3.003792,-2.923434 -2.750292,-5.004575 1.09237,-8.967993 1.35829,-1.400977 2.03783,-2.455519 3.66565,-5.688542 1.34675,-2.674816 2.49897,-4.557014 3.53406,-5.773073 0.8447,-0.992378 1.9596,-2.313453 2.47756,-2.935724 0.51795,-0.622268 1.64661,-2.727354 2.50811,-4.677966 1.59089,-3.602082 3.20003,-5.795528 4.25166,-5.795528 0.93925,0 0.34876,-3.305434 -1.04835,-5.868477 -1.4775,-2.710492 -1.49317,-2.862773 -0.29466,-2.862773 1.35122,0 2.74178,0.662017 4.02085,1.914252 1.21243,1.186993 1.26849,1.193911 1.52103,0.187728 0.12508,-0.498396 -0.11293,-1.207998 -0.90948,-2.711437 l -1.07892,-2.036376 h 1.22469 c 2.49555,0 4.76893,1.671116 7.08905,5.211021 1.60945,2.455609 1.38813,2.321277 11.14303,6.763581 15.72098,7.159207 24.06611,14.226982 27.29217,23.11468 0.71842,1.979242 0.70424,2.029565 -0.78564,2.787279 -9.19173,4.674669 -13.33633,8.960988 -18.07819,18.696358 -3.70845,7.61369 -5.1218,9.78818 -7.00283,10.77406 l -0.69115,0.36224 z"
           id="path1971" />
      </g>
      <g
         aria-label="7TH CAVALRY GAMING"
         transform="translate(-218.51751,-2.9226559)"
         id="text881"
         style="font-size:4.23333px;line-height:1.25;font-family:sans-serif;text-align:center;text-anchor:middle;white-space:pre;shape-inside:url(#rect883);stroke:none">
        <path
           d="m 252.41497,71.259633 h 2.72626 l 5.07999,-9.567315 v -2.285995 h -8.43278 v 2.285995 h 5.70652 z"
           style="font-style:normal;font-variant:normal;font-weight:bold;font-stretch:normal;font-size:16.9333px;font-family:Purista;-inkscape-font-specification:'Purista, Bold';font-variant-ligatures:normal;font-variant-caps:normal;font-variant-numeric:normal;font-variant-east-asian:normal;fill:#ffffff;stroke:none"
           id="path974" />
        <path
           d="m 260.89854,61.692318 h 3.43746 v 9.567315 h 2.62466 v -9.567315 h 3.43746 v -2.285995 h -9.49958 z"
           style="font-style:normal;font-variant:normal;font-weight:bold;font-stretch:normal;font-size:16.9333px;font-family:Purista;-inkscape-font-specification:'Purista, Bold';font-variant-ligatures:normal;font-variant-caps:normal;font-variant-numeric:normal;font-variant-east-asian:normal;fill:#ffffff;stroke:none"
           id="path976" />
        <path
           d="m 278.23822,71.259633 h 2.62466 v -11.85331 h -2.62466 v 4.77519 h -4.19946 v -4.77519 h -2.62466 v 11.85331 h 2.62466 v -4.792124 h 4.19946 z"
           style="font-style:normal;font-variant:normal;font-weight:bold;font-stretch:normal;font-size:16.9333px;font-family:Purista;-inkscape-font-specification:'Purista, Bold';font-variant-ligatures:normal;font-variant-caps:normal;font-variant-numeric:normal;font-variant-east-asian:normal;fill:#ffffff;stroke:none"
           id="path978" />
        <path
           d="m 297.42363,63.639648 v -1.574797 c 0,-1.59173 -1.0668,-2.658528 -2.65853,-2.658528 h -4.14866 c -1.5748,0 -2.64159,1.066798 -2.64159,2.658528 v 6.536254 c 0,1.59173 1.06679,2.658528 2.64159,2.658528 h 4.14866 c 1.59173,0 2.65853,-1.066798 2.65853,-2.658528 v -1.574797 h -2.62466 v 1.43933 c 0,0.338666 -0.16934,0.507999 -0.508,0.507999 h -3.18346 c -0.33867,0 -0.508,-0.169333 -0.508,-0.507999 v -6.265321 c 0,-0.338666 0.16933,-0.507999 0.508,-0.507999 h 3.18346 c 0.33866,0 0.508,0.169333 0.508,0.507999 v 1.439331 z"
           style="font-style:normal;font-variant:normal;font-weight:bold;font-stretch:normal;font-size:16.9333px;font-family:Purista;-inkscape-font-specification:'Purista, Bold';font-variant-ligatures:normal;font-variant-caps:normal;font-variant-numeric:normal;font-variant-east-asian:normal;fill:#ffffff;stroke:none"
           id="path980" />
        <path
           d="m 305.53467,59.406323 h -3.21733 l -3.87772,11.85331 h 2.67546 l 0.762,-2.506129 h 4.01319 l 0.762,2.506129 h 2.76013 z m -1.65946,2.793994 1.30386,4.267192 h -2.60773 z"
           style="font-style:normal;font-variant:normal;font-weight:bold;font-stretch:normal;font-size:16.9333px;font-family:Purista;-inkscape-font-specification:'Purista, Bold';font-variant-ligatures:normal;font-variant-caps:normal;font-variant-numeric:normal;font-variant-east-asian:normal;fill:#ffffff;stroke:none"
           id="path982" />
        <path
           d="m 312.27408,71.259633 h 3.048 l 3.87772,-11.85331 h -2.67546 l -2.69239,8.585183 -2.67547,-8.585183 h -2.76012 z"
           style="font-style:normal;font-variant:normal;font-weight:bold;font-stretch:normal;font-size:16.9333px;font-family:Purista;-inkscape-font-specification:'Purista, Bold';font-variant-ligatures:normal;font-variant-caps:normal;font-variant-numeric:normal;font-variant-east-asian:normal;fill:#ffffff;stroke:none"
           id="path984" />
        <path
           d="m 325.27881,59.406323 h -3.21733 l -3.87772,11.85331 h 2.67546 l 0.762,-2.506129 h 4.01319 l 0.762,2.506129 h 2.76012 z m -1.65947,2.793994 1.30387,4.267192 h -2.60773 z"
           style="font-style:normal;font-variant:normal;font-weight:bold;font-stretch:normal;font-size:16.9333px;font-family:Purista;-inkscape-font-specification:'Purista, Bold';font-variant-ligatures:normal;font-variant-caps:normal;font-variant-numeric:normal;font-variant-east-asian:normal;fill:#ffffff;stroke:none"
           id="path986" />
        <path
           d="m 330.17252,71.259633 h 8.26345 v -2.285996 h -5.63879 v -9.567314 h -2.62466 z"
           style="font-style:normal;font-variant:normal;font-weight:bold;font-stretch:normal;font-size:16.9333px;font-family:Purista;-inkscape-font-specification:'Purista, Bold';font-variant-ligatures:normal;font-variant-caps:normal;font-variant-numeric:normal;font-variant-east-asian:normal;fill:#ffffff;stroke:none"
           id="path988" />
        <path
           d="m 348.90072,64.655646 v -2.590795 c 0,-1.59173 -1.0668,-2.658528 -2.65853,-2.658528 h -6.45159 v 11.85331 h 2.62467 v -3.945459 h 1.91346 l 1.69333,3.945459 h 2.87866 l -1.86266,-4.047059 c 1.13453,-0.287866 1.86266,-1.253064 1.86266,-2.556928 z m -2.62466,-0.135467 c 0,0.338666 -0.16933,0.507999 -0.508,0.507999 h -3.35279 v -3.33586 h 3.35279 c 0.33867,0 0.508,0.169333 0.508,0.507999 z"
           style="font-style:normal;font-variant:normal;font-weight:bold;font-stretch:normal;font-size:16.9333px;font-family:Purista;-inkscape-font-specification:'Purista, Bold';font-variant-ligatures:normal;font-variant-caps:normal;font-variant-numeric:normal;font-variant-east-asian:normal;fill:#ffffff;stroke:none"
           id="path990" />
        <path
           d="m 356.46988,67.077108 4.25026,-7.670785 h -2.96333 l -2.55693,5.02919 -2.48919,-5.02919 h -3.13266 l 4.26719,7.670785 v 4.182525 h 2.62466 z"
           style="font-style:normal;font-variant:normal;font-weight:bold;font-stretch:normal;font-size:16.9333px;font-family:Purista;-inkscape-font-specification:'Purista, Bold';font-variant-ligatures:normal;font-variant-caps:normal;font-variant-numeric:normal;font-variant-east-asian:normal;fill:#ffffff;stroke:none"
           id="path992" />
        <path
           d="m 376.26488,64.689512 h -5.13079 v 2.285996 h 2.50613 v 1.49013 c 0,0.338666 -0.16933,0.507999 -0.508,0.507999 h -3.18346 c -0.33866,0 -0.508,-0.169333 -0.508,-0.507999 v -6.265321 c 0,-0.338666 0.16934,-0.507999 0.508,-0.507999 h 3.18346 c 0.33867,0 0.508,0.169333 0.508,0.507999 v 1.100665 h 2.62466 v -1.236131 c 0,-1.59173 -1.06679,-2.658528 -2.65852,-2.658528 h -4.14866 c -1.5748,0 -2.6416,1.066798 -2.6416,2.658528 v 6.536254 c 0,1.59173 1.0668,2.658528 2.6416,2.658528 h 2.45533 c 0.86359,0 1.59173,-0.321733 2.04892,-0.880532 l 0.37254,0.880532 h 1.93039 z"
           style="font-style:normal;font-variant:normal;font-weight:bold;font-stretch:normal;font-size:16.9333px;font-family:Purista;-inkscape-font-specification:'Purista, Bold';font-variant-ligatures:normal;font-variant-caps:normal;font-variant-numeric:normal;font-variant-east-asian:normal;fill:#ffffff;stroke:none"
           id="path994" />
        <path
           d="m 384.37592,59.406323 h -3.21732 l -3.87773,11.85331 h 2.67546 l 0.762,-2.506129 h 4.01319 l 0.762,2.506129 h 2.76013 z m -1.65946,2.793994 1.30386,4.267192 h -2.60772 z"
           style="font-style:normal;font-variant:normal;font-weight:bold;font-stretch:normal;font-size:16.9333px;font-family:Purista;-inkscape-font-specification:'Purista, Bold';font-variant-ligatures:normal;font-variant-caps:normal;font-variant-numeric:normal;font-variant-east-asian:normal;fill:#ffffff;stroke:none"
           id="path996" />
        <path
           d="m 397.44841,71.259633 h 2.62466 v -11.85331 h -2.54 l -2.86172,5.452522 -2.86173,-5.452522 h -2.54 v 11.85331 h 2.62467 v -6.688654 l 2.77706,5.28319 2.77706,-5.28319 z"
           style="font-style:normal;font-variant:normal;font-weight:bold;font-stretch:normal;font-size:16.9333px;font-family:Purista;-inkscape-font-specification:'Purista, Bold';font-variant-ligatures:normal;font-variant-caps:normal;font-variant-numeric:normal;font-variant-east-asian:normal;fill:#ffffff;stroke:none"
           id="path998" />
        <path
           d="m 402.10506,71.259633 h 2.62466 v -11.85331 h -2.62466 z"
           style="font-style:normal;font-variant:normal;font-weight:bold;font-stretch:normal;font-size:16.9333px;font-family:Purista;-inkscape-font-specification:'Purista, Bold';font-variant-ligatures:normal;font-variant-caps:normal;font-variant-numeric:normal;font-variant-east-asian:normal;fill:#ffffff;stroke:none"
           id="path1000" />
        <path
           d="m 413.75517,71.259633 h 2.45533 v -11.85331 h -2.62466 v 7.027319 l -4.36879,-7.027319 h -2.45533 v 11.85331 h 2.62466 v -7.02732 z"
           style="font-style:normal;font-variant:normal;font-weight:bold;font-stretch:normal;font-size:16.9333px;font-family:Purista;-inkscape-font-specification:'Purista, Bold';font-variant-ligatures:normal;font-variant-caps:normal;font-variant-numeric:normal;font-variant-east-asian:normal;fill:#ffffff;stroke:none"
           id="path1002" />
        <path
           d="m 427.69126,64.689512 h -5.13079 v 2.285996 h 2.50613 v 1.49013 c 0,0.338666 -0.16933,0.507999 -0.508,0.507999 h -3.18346 c -0.33867,0 -0.508,-0.169333 -0.508,-0.507999 v -6.265321 c 0,-0.338666 0.16933,-0.507999 0.508,-0.507999 h 3.18346 c 0.33867,0 0.508,0.169333 0.508,0.507999 v 1.100665 h 2.62466 v -1.236131 c 0,-1.59173 -1.0668,-2.658528 -2.65853,-2.658528 h -4.14866 c -1.57479,0 -2.64159,1.066798 -2.64159,2.658528 v 6.536254 c 0,1.59173 1.0668,2.658528 2.64159,2.658528 h 2.45533 c 0.8636,0 1.59173,-0.321733 2.04893,-0.880532 l 0.37253,0.880532 h 1.9304 z"
           style="font-style:normal;font-variant:normal;font-weight:bold;font-stretch:normal;font-size:16.9333px;font-family:Purista;-inkscape-font-specification:'Purista, Bold';font-variant-ligatures:normal;font-variant-caps:normal;font-variant-numeric:normal;font-variant-east-asian:normal;fill:#ffffff;stroke:none"
           id="path1004" />
      </g>
      <g
         aria-label="Active Duty Roster"
         transform="translate(-213.71857,-11.406823)"
         id="text903"
         style="font-size:4.23333px;line-height:1.25;font-family:sans-serif;text-align:center;text-anchor:middle;white-space:pre;shape-inside:url(#rect905)">
        <path
           d="m 299.32112,82.607462 h -0.85513 l -2.19287,5.92667 h 0.71967 l 0.5588,-1.524001 h 2.65853 l 0.5588,1.524001 h 0.7366 z m -0.44027,0.745067 1.143,3.048002 h -2.286 z"
           style="font-style:normal;font-variant:normal;font-weight:normal;font-stretch:normal;font-size:8.46667px;font-family:Purista;-inkscape-font-specification:'Purista, Normal';font-variant-ligatures:normal;font-variant-caps:normal;font-variant-numeric:normal;font-variant-east-asian:normal;fill:#ffffff"
           id="path941" />
        <path
           d="m 304.92604,87.052464 v 0.2286 c 0,0.414867 -0.26247,0.685801 -0.6858,0.685801 h -0.889 c -0.41487,0 -0.67733,-0.270934 -0.67733,-0.685801 v -1.905 c 0,-0.414867 0.26246,-0.677334 0.67733,-0.677334 h 0.889 c 0.42333,0 0.6858,0.262467 0.6858,0.677334 v 0.237066 h 0.65193 v -0.220133 c 0,-0.762 -0.49953,-1.261534 -1.26153,-1.261534 h -1.0414 c -0.75353,0 -1.26153,0.499534 -1.26153,1.261534 v 1.879601 c 0,0.753533 0.508,1.261534 1.26153,1.261534 h 1.0414 c 0.762,0 1.26153,-0.508001 1.26153,-1.261534 v -0.220134 z"
           style="font-style:normal;font-variant:normal;font-weight:normal;font-stretch:normal;font-size:8.46667px;font-family:Purista;-inkscape-font-specification:'Purista, Normal';font-variant-ligatures:normal;font-variant-caps:normal;font-variant-numeric:normal;font-variant-east-asian:normal;fill:#ffffff"
           id="path943" />
        <path
           d="m 306.00129,84.69873 h 1.10067 v 3.835402 h 0.6604 V 84.69873 h 1.10067 v -0.567267 h -1.10067 v -1.540934 l -0.6604,0.186267 v 1.354667 h -1.10067 z"
           style="font-style:normal;font-variant:normal;font-weight:normal;font-stretch:normal;font-size:8.46667px;font-family:Purista;-inkscape-font-specification:'Purista, Normal';font-variant-ligatures:normal;font-variant-caps:normal;font-variant-numeric:normal;font-variant-east-asian:normal;fill:#ffffff"
           id="path945" />
        <path
           d="m 309.45569,88.534132 h 0.6604 v -4.402669 h -0.6604 z m 0,-5.037669 h 0.6604 v -0.956734 h -0.6604 z"
           style="font-style:normal;font-variant:normal;font-weight:normal;font-stretch:normal;font-size:8.46667px;font-family:Purista;-inkscape-font-specification:'Purista, Normal';font-variant-ligatures:normal;font-variant-caps:normal;font-variant-numeric:normal;font-variant-east-asian:normal;fill:#ffffff"
           id="path947" />
        <path
           d="m 313.35034,88.534132 1.68487,-4.402669 h -0.6604 l -1.397,3.666068 -1.397,-3.666068 h -0.70273 l 1.68486,4.402669 z"
           style="font-style:normal;font-variant:normal;font-weight:normal;font-stretch:normal;font-size:8.46667px;font-family:Purista;-inkscape-font-specification:'Purista, Normal';font-variant-ligatures:normal;font-variant-caps:normal;font-variant-numeric:normal;font-variant-east-asian:normal;fill:#ffffff"
           id="path949" />
        <path
           d="m 318.45573,87.137131 v 0.143933 c 0,0.414867 -0.26247,0.685801 -0.68581,0.685801 h -0.889 c -0.41486,0 -0.67733,-0.270934 -0.67733,-0.685801 v -0.7366 h 2.90407 v -1.151467 c 0,-0.762 -0.49953,-1.261534 -1.26154,-1.261534 h -1.0414 c -0.75353,0 -1.26153,0.499534 -1.26153,1.261534 v 1.879601 c 0,0.753533 0.508,1.261534 1.26153,1.261534 h 1.0414 c 0.76201,0 1.26154,-0.508001 1.26154,-1.261534 v -0.135467 z m -2.25214,-1.761067 c 0,-0.414867 0.26247,-0.677334 0.67733,-0.677334 h 0.889 c 0.42334,0 0.68581,0.262467 0.68581,0.677334 v 0.643467 h -2.25214 z"
           style="font-style:normal;font-variant:normal;font-weight:normal;font-stretch:normal;font-size:8.46667px;font-family:Purista;-inkscape-font-specification:'Purista, Normal';font-variant-ligatures:normal;font-variant-caps:normal;font-variant-numeric:normal;font-variant-east-asian:normal;fill:#ffffff"
           id="path951" />
        <path
           d="m 326.46518,87.238731 c 0,0.414867 -0.26247,0.6858 -0.67734,0.6858 h -2.3368 v -4.707468 h 2.3368 c 0.41487,0 0.67734,0.262466 0.67734,0.677333 z m 0.70273,0.03387 v -3.403602 c 0,-0.762 -0.508,-1.261534 -1.26153,-1.261534 h -3.15807 v 5.92667 h 3.15807 c 0.75353,0 1.26153,-0.508001 1.26153,-1.261534 z"
           style="font-style:normal;font-variant:normal;font-weight:normal;font-stretch:normal;font-size:8.46667px;font-family:Purista;-inkscape-font-specification:'Purista, Normal';font-variant-ligatures:normal;font-variant-caps:normal;font-variant-numeric:normal;font-variant-east-asian:normal;fill:#ffffff"
           id="path953" />
        <path
           d="m 328.35323,84.131463 v 3.141135 c 0,0.753533 0.508,1.261534 1.26154,1.261534 h 0.8128 c 0.381,0 0.70273,-0.127001 0.92286,-0.355601 l 0.0593,0.355601 h 0.508 v -4.402669 h -0.65193 v 3.217335 c -0.0254,0.381 -0.29634,0.618067 -0.6858,0.618067 h -0.889 c -0.41487,0 -0.67734,-0.262467 -0.67734,-0.685801 v -3.149601 z"
           style="font-style:normal;font-variant:normal;font-weight:normal;font-stretch:normal;font-size:8.46667px;font-family:Purista;-inkscape-font-specification:'Purista, Normal';font-variant-ligatures:normal;font-variant-caps:normal;font-variant-numeric:normal;font-variant-east-asian:normal;fill:#ffffff"
           id="path955" />
        <path
           d="m 332.51036,84.69873 h 1.10067 v 3.835402 h 0.6604 V 84.69873 h 1.10066 v -0.567267 h -1.10066 v -1.540934 l -0.6604,0.186267 v 1.354667 h -1.10067 z"
           style="font-style:normal;font-variant:normal;font-weight:normal;font-stretch:normal;font-size:8.46667px;font-family:Purista;-inkscape-font-specification:'Purista, Normal';font-variant-ligatures:normal;font-variant-caps:normal;font-variant-numeric:normal;font-variant-east-asian:normal;fill:#ffffff"
           id="path957" />
        <path
           d="m 337.36175,90.227466 2.33681,-6.096003 h -0.6604 l -1.39701,3.674535 -1.397,-3.674535 h -0.70273 l 1.68487,4.402669 h 0.0847 l -0.65193,1.693334 z"
           style="font-style:normal;font-variant:normal;font-weight:normal;font-stretch:normal;font-size:8.46667px;font-family:Purista;-inkscape-font-specification:'Purista, Normal';font-variant-ligatures:normal;font-variant-caps:normal;font-variant-numeric:normal;font-variant-east-asian:normal;fill:#ffffff"
           id="path959" />
        <path
           d="m 347.2508,85.02893 v -1.159934 c 0,-0.762 -0.508,-1.261534 -1.26153,-1.261534 h -2.98873 v 5.92667 h 0.70273 v -2.243668 h 1.78647 l 0.9906,2.243668 h 0.77046 l -1.03293,-2.260601 c 0.62653,-0.09313 1.03293,-0.567267 1.03293,-1.244601 z m -0.70273,-0.0254 c 0,0.414867 -0.26247,0.677334 -0.67733,0.677334 h -2.16747 v -2.463801 h 2.16747 c 0.41486,0 0.67733,0.262466 0.67733,0.677333 z"
           style="font-style:normal;font-variant:normal;font-weight:normal;font-stretch:normal;font-size:8.46667px;font-family:Purista;-inkscape-font-specification:'Purista, Normal';font-variant-ligatures:normal;font-variant-caps:normal;font-variant-numeric:normal;font-variant-east-asian:normal;fill:#ffffff"
           id="path961" />
        <path
           d="m 351.09467,87.281064 c 0,0.414867 -0.26247,0.685801 -0.6858,0.685801 h -0.889 c -0.41487,0 -0.67733,-0.270934 -0.67733,-0.685801 v -1.905 c 0,-0.414867 0.26246,-0.677334 0.67733,-0.677334 h 0.889 c 0.42333,0 0.6858,0.262467 0.6858,0.677334 z m 0.65193,-0.0085 v -1.879601 c 0,-0.762 -0.49953,-1.261534 -1.26153,-1.261534 h -1.0414 c -0.75353,0 -1.26153,0.499534 -1.26153,1.261534 v 1.879601 c 0,0.753533 0.508,1.261534 1.26153,1.261534 h 1.0414 c 0.762,0 1.26153,-0.508001 1.26153,-1.261534 z"
           style="font-style:normal;font-variant:normal;font-weight:normal;font-stretch:normal;font-size:8.46667px;font-family:Purista;-inkscape-font-specification:'Purista, Normal';font-variant-ligatures:normal;font-variant-caps:normal;font-variant-numeric:normal;font-variant-east-asian:normal;fill:#ffffff"
           id="path963" />
        <path
           d="m 355.14173,86.044931 h -1.06681 c -0.37253,0 -0.6096,-0.237067 -0.6096,-0.618067 V 85.30833 c 0,-0.372533 0.23707,-0.6096 0.6096,-0.6096 h 0.93981 c 0.381,0 0.61806,0.237067 0.61806,0.6096 v 0.194734 h 0.65194 v -0.1778 c 0,-0.719667 -0.47414,-1.193801 -1.1938,-1.193801 h -1.09221 c -0.7112,0 -1.1938,0.474134 -1.1938,1.193801 v 0.0508 c 0,0.7112 0.4826,1.1938 1.1938,1.1938 h 1.05834 c 0.381,0 0.61807,0.237067 0.61807,0.618067 v 0.160867 c 0,0.372533 -0.23707,0.618067 -0.61807,0.618067 h -1.02447 c -0.37253,0 -0.6096,-0.237067 -0.6096,-0.618067 v -0.194734 h -0.6604 v 0.186267 c 0,0.7112 0.4826,1.193801 1.1938,1.193801 h 1.18534 c 0.7112,0 1.18533,-0.482601 1.18533,-1.193801 v -0.1016 c 0,-0.719667 -0.47413,-1.1938 -1.18533,-1.1938 z"
           style="font-style:normal;font-variant:normal;font-weight:normal;font-stretch:normal;font-size:8.46667px;font-family:Purista;-inkscape-font-specification:'Purista, Normal';font-variant-ligatures:normal;font-variant-caps:normal;font-variant-numeric:normal;font-variant-east-asian:normal;fill:#ffffff"
           id="path965" />
        <path
           d="m 356.83505,84.69873 h 1.10066 v 3.835402 h 0.6604 V 84.69873 h 1.10067 v -0.567267 h -1.10067 v -1.540934 l -0.6604,0.186267 v 1.354667 h -1.10066 z"
           style="font-style:normal;font-variant:normal;font-weight:normal;font-stretch:normal;font-size:8.46667px;font-family:Purista;-inkscape-font-specification:'Purista, Normal';font-variant-ligatures:normal;font-variant-caps:normal;font-variant-numeric:normal;font-variant-east-asian:normal;fill:#ffffff"
           id="path967" />
        <path
           d="m 363.11731,87.137131 v 0.143933 c 0,0.414867 -0.26247,0.685801 -0.6858,0.685801 h -0.889 c -0.41487,0 -0.67733,-0.270934 -0.67733,-0.685801 v -0.7366 h 2.90406 v -1.151467 c 0,-0.762 -0.49953,-1.261534 -1.26153,-1.261534 h -1.0414 c -0.75353,0 -1.26153,0.499534 -1.26153,1.261534 v 1.879601 c 0,0.753533 0.508,1.261534 1.26153,1.261534 h 1.0414 c 0.762,0 1.26153,-0.508001 1.26153,-1.261534 v -0.135467 z m -2.25213,-1.761067 c 0,-0.414867 0.26246,-0.677334 0.67733,-0.677334 h 0.889 c 0.42333,0 0.6858,0.262467 0.6858,0.677334 v 0.643467 h -2.25213 z"
           style="font-style:normal;font-variant:normal;font-weight:normal;font-stretch:normal;font-size:8.46667px;font-family:Purista;-inkscape-font-specification:'Purista, Normal';font-variant-ligatures:normal;font-variant-caps:normal;font-variant-numeric:normal;font-variant-east-asian:normal;fill:#ffffff"
           id="path969" />
        <path
           d="m 367.24057,84.131463 h -0.88054 c -0.381,0 -0.70273,0.127 -0.92287,0.3556 l -0.0593,-0.3556 h -0.508 v 4.402669 h 0.6604 v -3.158068 c 0,-0.414867 0.26247,-0.677334 0.67733,-0.677334 h 1.03294 z"
           style="font-style:normal;font-variant:normal;font-weight:normal;font-stretch:normal;font-size:8.46667px;font-family:Purista;-inkscape-font-specification:'Purista, Normal';font-variant-ligatures:normal;font-variant-caps:normal;font-variant-numeric:normal;font-variant-east-asian:normal;fill:#ffffff"
           id="path971" />
      </g>
    </g>
  </g>
</svg>
