<?xml version="1.0" encoding="UTF-8" standalone="no"?>
<svg
   xmlns:dc="http://purl.org/dc/elements/1.1/"
   xmlns:cc="http://creativecommons.org/ns#"
   xmlns:rdf="http://www.w3.org/1999/02/22-rdf-syntax-ns#"
   xmlns:svg="http://www.w3.org/2000/svg"
   xmlns="http://www.w3.org/2000/svg"
   xmlns:sodipodi="http://sodipodi.sourceforge.net/DTD/sodipodi-0.dtd"
   xmlns:inkscape="http://www.inkscape.org/namespaces/inkscape"
   width="68.754807mm"
   height="27.21698mm"
   viewBox="0 0 68.754807 27.21698"
   version="1.1"
   id="svg1333"
   inkscape:version="1.0.1 (3bc2e813f5, 2020-09-07)"
   sodipodi:docname="CavAppsLogo.svg">
  <defs
     id="defs1327">
    <rect
       x="322.82602"
       y="-122.0884"
       width="42.225048"
       height="23.338446"
       id="rect1227" />
    <rect
       x="322.82602"
       y="-122.0884"
       width="42.225048"
       height="23.338446"
       id="rect1319" />
  </defs>
  <sodipodi:namedview
     id="base"
     pagecolor="#ffffff"
     bordercolor="#666666"
     borderopacity="1.0"
     inkscape:pageopacity="0.0"
     inkscape:pageshadow="2"
     inkscape:zoom="1.9008621"
     inkscape:cx="148.61742"
     inkscape:cy="65.629048"
     inkscape:document-units="mm"
     inkscape:current-layer="layer1"
     inkscape:document-rotation="0"
     showgrid="false"
     inkscape:pagecheckerboard="true"
     fit-margin-top="0"
     fit-margin-left="0"
     fit-margin-right="0"
     fit-margin-bottom="0"
     inkscape:window-width="1267"
     inkscape:window-height="1041"
     inkscape:window-x="182"
     inkscape:window-y="0"
     inkscape:window-maximized="0" />
  <metadata
     id="metadata1330">
    <rdf:RDF>
      <cc:Work
         rdf:about="">
        <dc:format>image/svg+xml</dc:format>
        <dc:type
           rdf:resource="http://purl.org/dc/dcmitype/StillImage" />
        <dc:title />
      </cc:Work>
    </rdf:RDF>
  </metadata>
  <g
     inkscape:label="Layer 1"
     inkscape:groupmode="layer"
     id="layer1"
     transform="translate(-103.7003,-107.76626)">
    <g
       id="g878">
      <path
         style="fill:#f9cc17;fill-opacity:1;stroke-width:0.0362039"
         d="m 134.22565,134.64126 c -1.35907,-0.6989 -2.5884,-3.2996 -3.59742,-7.61051 -1.96751,-8.40592 -1.45405,-16.06899 1.2146,-18.12762 2.74041,-2.114 12.91435,-0.17668 15.97824,3.04256 0.92065,0.96732 1.11288,2.27446 0.66035,4.49037 -1.51703,7.42842 -11.19031,19.7816 -14.25577,18.2052 z"
         id="path1981" />
      <path
         style="fill:#000000;stroke-width:0.0369015"
         d="m 133.92794,134.7502 c -1.48778,-0.94565 -2.99481,-4.83522 -3.94924,-10.19274 -1.38243,-7.76019 -0.6251,-14.24966 1.86222,-15.95716 3.10652,-2.13259 13.75877,0.11478 16.41804,3.46381 2.05327,2.58587 -0.98551,10.51725 -6.73643,17.58244 -3.40902,4.18809 -6.1437,6.02583 -7.59459,5.10365 z m 1.14102,-0.35348 c 1.08519,-0.17588 2.83488,-1.51867 4.74482,-3.64141 0.45941,-0.51058 1.0267,-1.17629 1.03558,-1.21521 0.005,-0.0209 -10.02984,-15.75724 -10.41203,-16.32814 l -0.19433,-0.29029 -0.097,0.52669 c -0.98655,5.36052 0.78061,16.17876 3.2524,19.91071 0.57362,0.86603 1.01971,1.14312 1.6705,1.03765 z m 9.13107,-9.46711 c 3.10386,-4.903 4.57105,-9.18798 4.01161,-11.71601 -0.48086,-2.17286 -6.39829,-4.61435 -11.77056,-4.85643 -1.20517,-0.0543 -3.08482,0.0934 -3.07067,0.24179 0.004,0.0472 10.54021,16.68746 10.5711,16.69624 0.0131,0.003 0.12897,-0.16092 0.25852,-0.36559 z m -1.3005,-5.76696 c 0.25819,-1.29146 0.21431,-1.78088 -0.27412,-3.05769 -0.12702,-0.33212 -0.24619,-0.66273 -0.26479,-0.73469 l -0.0338,-0.13081 -0.20008,0.0501 c -0.31678,0.0792 -0.87545,0.12236 -1.13767,0.0878 -0.23418,-0.0309 -0.24758,-0.0273 -0.51414,0.13687 -0.15206,0.0937 -0.39412,0.19993 -0.54474,0.23923 -0.2244,0.0585 -0.32491,0.11375 -0.58378,0.32115 -0.39263,0.31445 -0.57241,0.33085 -0.61403,0.056 -0.0266,-0.17571 -0.13387,-0.24232 -0.43263,-0.26862 -0.15582,-0.0137 -0.17022,-0.024 -0.29038,-0.20957 -0.3179,-0.49062 -0.21895,-0.76578 0.42641,-1.18568 0.22811,-0.14843 0.35319,-0.27077 0.67472,-0.65997 0.26601,-0.32202 0.48103,-0.54227 0.65946,-0.67556 0.14561,-0.10881 0.33816,-0.25388 0.42786,-0.32245 0.0898,-0.0686 0.30842,-0.31987 0.48601,-0.55843 0.32794,-0.44053 0.61472,-0.68896 0.75773,-0.65638 0.12777,0.0291 0.14982,-0.43868 0.0393,-0.8305 -0.11693,-0.41437 -0.11439,-0.43555 0.0487,-0.39843 0.18375,0.0418 0.35234,0.17498 0.48747,0.3849 0.12809,0.19897 0.13548,0.20165 0.20101,0.0726 0.0325,-0.0639 0.022,-0.16777 -0.0397,-0.39689 l -0.0837,-0.31036 0.16654,0.038 c 0.33937,0.0773 0.59673,0.375 0.80257,0.92828 0.14272,0.38378 0.11685,0.35866 1.30571,1.26499 1.91601,1.46064 2.83183,2.68032 2.99515,3.98887 0.0364,0.29141 0.0328,0.29781 -0.19319,0.35469 -1.39478,0.35089 -2.0912,0.80535 -3.03766,1.9823 -0.74019,0.92044 -0.99976,1.17235 -1.2861,1.24813 l -0.10524,0.0278 z"
         id="path1971" />
      <g
         aria-label="CavApps"
         transform="matrix(4.0528323,0,0,4.0528323,-1255.9331,610.47219)"
         id="text1225"
         style="font-size:4.23333px;line-height:1.25;font-family:sans-serif;text-align:center;white-space:pre;shape-inside:url(#rect1227);fill:#ffffff;fill-opacity:1;stroke:#000000;stroke-width:0.111774;stroke-miterlimit:4;stroke-dasharray:none">
        <path
           d="m 337.89542,-120.13069 v -0.3937 c 0,-0.39794 -0.2667,-0.66464 -0.66464,-0.66464 h -1.03716 c -0.3937,0 -0.6604,0.2667 -0.6604,0.66464 v 1.63406 c 0,0.39793 0.2667,0.66463 0.6604,0.66463 h 1.03716 c 0.39794,0 0.66464,-0.2667 0.66464,-0.66463 v -0.3937 h -0.65617 v 0.35984 c 0,0.0847 -0.0423,0.12699 -0.127,0.12699 h -0.79587 c -0.0847,0 -0.127,-0.0423 -0.127,-0.12699 v -1.56634 c 0,-0.0847 0.0423,-0.127 0.127,-0.127 h 0.79587 c 0.0847,0 0.127,0.0423 0.127,0.127 v 0.35984 z"
           style="font-style:normal;font-variant:normal;font-weight:bold;font-stretch:normal;font-size:4.23333px;font-family:Purista;-inkscape-font-specification:'Purista, Bold';font-variant-ligatures:normal;font-variant-caps:normal;font-variant-numeric:normal;font-variant-east-asian:normal;fill:#ffffff;fill-opacity:1;stroke:#000000;stroke-width:0.111774;stroke-miterlimit:4;stroke-dasharray:none"
           id="path853" />
        <path
           d="m 340.24491,-118.2257 v -1.53669 c 0,-0.39794 -0.2667,-0.66464 -0.6604,-0.66464 h -0.4953 c -0.39793,0 -0.66463,0.2667 -0.66463,0.66464 v 0.0762 h 0.61383 v -0.0847 c 0,-0.0847 0.0423,-0.127 0.127,-0.127 h 0.33867 c 0.0847,0 0.127,0.0423 0.127,0.127 v 0.3683 c -0.1143,-0.0974 -0.2667,-0.15663 -0.44873,-0.15663 h -0.19897 c -0.39793,0 -0.66463,0.2667 -0.66463,0.66463 v 0.004 c 0,0.39793 0.2667,0.66463 0.66463,0.66463 h 0.19897 c 0.21166,0 0.38946,-0.0762 0.50376,-0.21166 l 0.0931,0.21166 z m -0.74083,-0.52916 h -0.4445 c -0.0847,0 -0.127,-0.0423 -0.127,-0.127 v -0.0635 c 0,-0.0847 0.0423,-0.127 0.127,-0.127 h 0.4445 c 0.0762,0 0.11853,0.0381 0.127,0.11007 v 0.0804 c 0,0.0847 -0.0423,0.127 -0.127,0.127 z"
           style="font-style:normal;font-variant:normal;font-weight:bold;font-stretch:normal;font-size:4.23333px;font-family:Purista;-inkscape-font-specification:'Purista, Bold';font-variant-ligatures:normal;font-variant-caps:normal;font-variant-numeric:normal;font-variant-east-asian:normal;fill:#ffffff;fill-opacity:1;stroke:#000000;stroke-width:0.111774;stroke-miterlimit:4;stroke-dasharray:none"
           id="path855" />
        <path
           d="m 341.97634,-118.2257 0.74506,-2.20133 h -0.61383 l -0.47837,1.5113 -0.47413,-1.5113 h -0.65617 l 0.74507,2.20133 z"
           style="font-style:normal;font-variant:normal;font-weight:bold;font-stretch:normal;font-size:4.23333px;font-family:Purista;-inkscape-font-specification:'Purista, Bold';font-variant-ligatures:normal;font-variant-caps:normal;font-variant-numeric:normal;font-variant-east-asian:normal;fill:#ffffff;fill-opacity:1;stroke:#000000;stroke-width:0.111774;stroke-miterlimit:4;stroke-dasharray:none"
           id="path857" />
        <path
           d="m 344.49517,-121.18903 h -0.80434 l -0.96943,2.96333 h 0.66887 l 0.1905,-0.62653 h 1.0033 l 0.1905,0.62653 h 0.69003 z m -0.41487,0.6985 0.32597,1.0668 h -0.65194 z"
           style="font-style:normal;font-variant:normal;font-weight:bold;font-stretch:normal;font-size:4.23333px;font-family:Purista;-inkscape-font-specification:'Purista, Bold';font-variant-ligatures:normal;font-variant-caps:normal;font-variant-numeric:normal;font-variant-east-asian:normal;fill:#ffffff;fill-opacity:1;stroke:#000000;stroke-width:0.111774;stroke-miterlimit:4;stroke-dasharray:none"
           id="path859" />
        <path
           d="m 345.71859,-117.37903 h 0.61384 v -1.0033 c 0.1143,0.1016 0.2667,0.15663 0.44873,0.15663 h 0.19897 c 0.39793,0 0.66463,-0.2667 0.66463,-0.66463 v -0.87206 c 0,-0.39794 -0.2667,-0.66464 -0.66463,-0.66464 h -0.19897 c -0.2159,0 -0.38947,0.0804 -0.508,0.2159 l -0.0889,-0.2159 h -0.46567 z m 1.31234,-1.50283 c 0,0.0847 -0.0423,0.127 -0.127,0.127 h -0.4445 c -0.0847,0 -0.127,-0.0423 -0.127,-0.127 v -0.90593 c 0.004,-0.072 0.0466,-0.11007 0.127,-0.11007 h 0.4445 c 0.0847,0 0.127,0.0423 0.127,0.127 z"
           style="font-style:normal;font-variant:normal;font-weight:bold;font-stretch:normal;font-size:4.23333px;font-family:Purista;-inkscape-font-specification:'Purista, Bold';font-variant-ligatures:normal;font-variant-caps:normal;font-variant-numeric:normal;font-variant-east-asian:normal;fill:#ffffff;fill-opacity:1;stroke:#000000;stroke-width:0.111774;stroke-miterlimit:4;stroke-dasharray:none"
           id="path861" />
        <path
           d="m 348.11042,-117.37903 h 0.61383 v -1.0033 c 0.1143,0.1016 0.2667,0.15663 0.44873,0.15663 h 0.19897 c 0.39793,0 0.66463,-0.2667 0.66463,-0.66463 v -0.87206 c 0,-0.39794 -0.2667,-0.66464 -0.66463,-0.66464 h -0.19897 c -0.21589,0 -0.38946,0.0804 -0.50799,0.2159 l -0.0889,-0.2159 h -0.46567 z m 1.31233,-1.50283 c 0,0.0847 -0.0423,0.127 -0.127,0.127 h -0.4445 c -0.0847,0 -0.127,-0.0423 -0.127,-0.127 v -0.90593 c 0.004,-0.072 0.0466,-0.11007 0.127,-0.11007 h 0.4445 c 0.0847,0 0.127,0.0423 0.127,0.127 z"
           style="font-style:normal;font-variant:normal;font-weight:bold;font-stretch:normal;font-size:4.23333px;font-family:Purista;-inkscape-font-specification:'Purista, Bold';font-variant-ligatures:normal;font-variant-caps:normal;font-variant-numeric:normal;font-variant-east-asian:normal;fill:#ffffff;fill-opacity:1;stroke:#000000;stroke-width:0.111774;stroke-miterlimit:4;stroke-dasharray:none"
           id="path863" />
        <path
           d="m 351.72568,-119.57189 h -0.50377 c -0.0847,0 -0.127,-0.0423 -0.127,-0.127 v -0.072 c 0,-0.0847 0.0423,-0.127 0.127,-0.127 h 0.40217 c 0.0847,0 0.127,0.0423 0.127,0.127 v 0.0847 h 0.61383 v -0.0762 c 0,-0.39794 -0.2667,-0.66464 -0.66463,-0.66464 h -0.5588 c -0.3937,0 -0.6604,0.2667 -0.6604,0.66464 v 0.0127 c 0,0.39793 0.2667,0.66463 0.6604,0.66463 h 0.50376 c 0.0847,0 0.127,0.0466 0.127,0.13123 v 0.0677 c 0,0.0847 -0.0423,0.13123 -0.127,0.13123 h -0.4445 c -0.0847,0 -0.127,-0.0423 -0.127,-0.127 v -0.0847 h -0.61383 v 0.0762 c 0,0.39793 0.2667,0.66463 0.66463,0.66463 h 0.60114 c 0.3937,0 0.6604,-0.2667 0.6604,-0.66463 v -0.0169 c 0,-0.39793 -0.2667,-0.66463 -0.6604,-0.66463 z"
           style="font-style:normal;font-variant:normal;font-weight:bold;font-stretch:normal;font-size:4.23333px;font-family:Purista;-inkscape-font-specification:'Purista, Bold';font-variant-ligatures:normal;font-variant-caps:normal;font-variant-numeric:normal;font-variant-east-asian:normal;fill:#ffffff;fill-opacity:1;stroke:#000000;stroke-width:0.111774;stroke-miterlimit:4;stroke-dasharray:none"
           id="path865" />
      </g>
    </g>
  </g>
</svg>
